<?xml version="1.0" standalone="no"?>
<!DOCTYPE svg PUBLIC "-//W3C//DTD SVG 20010904//EN"
 "http://www.w3.org/TR/2001/REC-SVG-20010904/DTD/svg10.dtd">
<svg version="1.0" xmlns="http://www.w3.org/2000/svg"
 width="141.000000pt" height="144.000000pt" viewBox="0 0 141.000000 144.000000"
 preserveAspectRatio="xMidYMid meet">

<g transform="translate(0.000000,144.000000) scale(0.100000,-0.100000)"
fill="#000000" stroke="none">
<path d="M712 1393 c-5 -10 -19 -45 -32 -78 -13 -33 -30 -66 -38 -72 -11 -9
-52 -13 -125 -13 -98 0 -108 -2 -105 -17 3 -16 18 -18 142 -18 l138 0 22 70
23 70 13 -45 c7 -25 16 -56 19 -70 7 -24 12 -25 92 -30 l84 -5 -35 -15 -35
-14 54 -4 c44 -3 60 1 93 23 22 14 38 32 35 38 -2 8 -42 14 -118 17 l-114 5
-36 85 c-37 85 -60 107 -77 73z"/>
<path d="M942 1341 c-10 -6 -10 -10 1 -20 12 -9 16 -8 20 3 7 19 -4 27 -21 17z"/>
<path d="M528 1122 c18 -15 32 -31 32 -37 0 -5 -27 -50 -60 -100 -33 -49 -60
-96 -60 -102 0 -21 32 -15 109 22 90 44 107 44 116 5 4 -18 13 -30 22 -30 9 0
14 3 10 6 -3 4 0 18 7 33 15 29 8 122 -9 128 -6 2 -44 -19 -84 -47 -41 -28
-75 -49 -77 -47 -2 1 24 36 56 77 33 41 60 80 60 86 0 18 -48 34 -103 34 l-52
-1 33 -27z"/>
<path d="M391 1098 c-1 -9 -9 -22 -18 -27 -11 -6 -13 -11 -5 -11 7 0 17 -10
22 -22 7 -18 9 -19 9 -5 1 10 11 22 24 27 17 7 18 9 4 9 -10 1 -22 11 -27 24
-6 16 -9 17 -9 5z"/>
<path d="M1071 1097 c-1 -10 -11 -22 -23 -27 -18 -7 -19 -9 -5 -9 10 -1 21 -9
25 -18 6 -17 9 -16 29 5 17 16 18 22 7 22 -8 0 -19 10 -24 23 -7 17 -9 18 -9
4z"/>
<path d="M996 893 c-6 -14 -5 -15 5 -6 7 7 10 15 7 18 -3 3 -9 -2 -12 -12z"/>
<path d="M445 590 c-8 -138 2 -129 -118 -106 -92 18 -163 53 -219 108 l-43 43
145 3 c79 1 150 0 158 -3 10 -4 13 -14 8 -35 -5 -27 -3 -30 19 -30 24 0 25 3
25 55 l0 55 -210 0 -210 0 20 -40 c50 -97 177 -178 313 -200 40 -6 92 -14 116
-18 31 -5 50 -15 64 -34 18 -24 19 -32 8 -67 -14 -49 -66 -94 -127 -111 l-44
-13 0 -68 0 -69 115 0 c104 0 117 2 149 24 66 44 176 44 242 0 32 -22 46 -24
149 -24 l115 0 0 69 0 68 -47 14 c-56 15 -117 72 -126 118 -23 112 133 219
371 256 l42 7 0 59 0 59 -454 0 -454 0 -7 -120z m859 65 c-4 -8 -14 -15 -24
-15 -10 0 -20 -4 -22 -9 -1 -6 -19 -13 -38 -16 -165 -28 -304 -107 -500 -287
-39 -36 -60 -63 -57 -72 4 -10 0 -13 -16 -11 -12 3 -29 0 -37 -5 -13 -9 -13
-11 0 -20 13 -9 13 -10 0 -11 -8 -1 -21 -1 -29 0 -7 2 -10 -2 -7 -7 3 -5 -1
-15 -8 -21 -10 -8 -16 -9 -21 -1 -3 5 -11 10 -16 10 -6 0 -8 -4 -5 -8 3 -5
-14 -9 -37 -11 l-42 -2 40 30 c52 38 85 97 85 150 0 34 -7 49 -40 85 l-40 43
0 97 0 96 410 0 c360 0 409 -2 404 -15z"/>
<path d="M540 241 c0 -6 4 -13 10 -16 6 -3 7 1 4 9 -7 18 -14 21 -14 7z"/>
<path d="M575 239 c-4 -6 -5 -12 -2 -15 2 -3 7 2 10 11 7 17 1 20 -8 4z"/>
<path d="M547 195 c3 -8 9 -12 14 -9 12 7 11 11 -5 17 -10 4 -13 1 -9 -8z"/>
</g>
</svg>
